<mxfile host="app.diagrams.net" modified="2024-05-16T19:21:52.266Z" agent="Mozilla/5.0 (Windows NT 10.0; Win64; x64; rv:125.0) Gecko/20100101 Firefox/125.0" etag="kj0pU4j10-JzYAg6wyZe" version="24.4.2" type="github" pages="3">
  <diagram name="Page-1" id="HAix57_kUoFhauAfbDWD" />
  <diagram id="mY6xaUp_AEzl2oP1fs6A" name="Page-2">
    <mxGraphModel dx="1764" dy="796" grid="1" gridSize="10" guides="1" tooltips="1" connect="1" arrows="1" fold="1" page="1" pageScale="1" pageWidth="850" pageHeight="1100" math="0" shadow="0">
      <root>
        <mxCell id="0" />
        <mxCell id="1" parent="0" />
        <mxCell id="qcWmt_7-_qkY_qiTGlPZ-8" value="" style="rounded=0;whiteSpace=wrap;html=1;" vertex="1" parent="1">
          <mxGeometry x="220" y="90" width="410" height="960" as="geometry" />
        </mxCell>
        <mxCell id="qcWmt_7-_qkY_qiTGlPZ-1" value="Visit Website" style="ellipse;whiteSpace=wrap;html=1;" vertex="1" parent="1">
          <mxGeometry x="315" y="120" width="220" height="60" as="geometry" />
        </mxCell>
        <mxCell id="qcWmt_7-_qkY_qiTGlPZ-2" value="Schedule appointment" style="ellipse;whiteSpace=wrap;html=1;" vertex="1" parent="1">
          <mxGeometry x="315" y="200" width="220" height="60" as="geometry" />
        </mxCell>
        <mxCell id="qcWmt_7-_qkY_qiTGlPZ-3" value="Contact doctor" style="ellipse;whiteSpace=wrap;html=1;" vertex="1" parent="1">
          <mxGeometry x="315" y="280" width="220" height="60" as="geometry" />
        </mxCell>
        <mxCell id="qcWmt_7-_qkY_qiTGlPZ-4" value="Login" style="ellipse;whiteSpace=wrap;html=1;" vertex="1" parent="1">
          <mxGeometry x="315" y="400" width="220" height="60" as="geometry" />
        </mxCell>
        <mxCell id="qcWmt_7-_qkY_qiTGlPZ-5" value="Logout" style="ellipse;whiteSpace=wrap;html=1;" vertex="1" parent="1">
          <mxGeometry x="315" y="480" width="220" height="60" as="geometry" />
        </mxCell>
        <mxCell id="qcWmt_7-_qkY_qiTGlPZ-6" value="Update patient information" style="ellipse;whiteSpace=wrap;html=1;" vertex="1" parent="1">
          <mxGeometry x="312.5" y="730" width="220" height="60" as="geometry" />
        </mxCell>
        <mxCell id="qcWmt_7-_qkY_qiTGlPZ-7" value="Manage Departments" style="ellipse;whiteSpace=wrap;html=1;" vertex="1" parent="1">
          <mxGeometry x="311.5" y="810" width="220" height="60" as="geometry" />
        </mxCell>
        <mxCell id="50ibuqz27vsXGFiZqZsY-11" style="rounded=0;orthogonalLoop=1;jettySize=auto;html=1;entryX=0;entryY=0.5;entryDx=0;entryDy=0;" edge="1" parent="1" source="qcWmt_7-_qkY_qiTGlPZ-10" target="qcWmt_7-_qkY_qiTGlPZ-1">
          <mxGeometry relative="1" as="geometry" />
        </mxCell>
        <mxCell id="50ibuqz27vsXGFiZqZsY-12" style="edgeStyle=orthogonalEdgeStyle;rounded=0;orthogonalLoop=1;jettySize=auto;html=1;entryX=0;entryY=0.5;entryDx=0;entryDy=0;" edge="1" parent="1" source="qcWmt_7-_qkY_qiTGlPZ-10" target="qcWmt_7-_qkY_qiTGlPZ-2">
          <mxGeometry relative="1" as="geometry" />
        </mxCell>
        <mxCell id="50ibuqz27vsXGFiZqZsY-14" style="rounded=0;orthogonalLoop=1;jettySize=auto;html=1;entryX=0;entryY=0.5;entryDx=0;entryDy=0;" edge="1" parent="1" source="qcWmt_7-_qkY_qiTGlPZ-10" target="qcWmt_7-_qkY_qiTGlPZ-3">
          <mxGeometry relative="1" as="geometry" />
        </mxCell>
        <mxCell id="qcWmt_7-_qkY_qiTGlPZ-10" value="User/ Patient" style="shape=umlActor;verticalLabelPosition=bottom;verticalAlign=top;html=1;outlineConnect=0;" vertex="1" parent="1">
          <mxGeometry x="70" y="200" width="30" height="60" as="geometry" />
        </mxCell>
        <mxCell id="50ibuqz27vsXGFiZqZsY-15" style="rounded=0;orthogonalLoop=1;jettySize=auto;html=1;entryX=0;entryY=0.5;entryDx=0;entryDy=0;" edge="1" parent="1" source="qcWmt_7-_qkY_qiTGlPZ-11" target="qcWmt_7-_qkY_qiTGlPZ-4">
          <mxGeometry relative="1" as="geometry" />
        </mxCell>
        <mxCell id="50ibuqz27vsXGFiZqZsY-17" style="rounded=0;orthogonalLoop=1;jettySize=auto;html=1;entryX=0;entryY=0.5;entryDx=0;entryDy=0;" edge="1" parent="1" source="qcWmt_7-_qkY_qiTGlPZ-11" target="50ibuqz27vsXGFiZqZsY-3">
          <mxGeometry relative="1" as="geometry" />
        </mxCell>
        <mxCell id="50ibuqz27vsXGFiZqZsY-18" style="rounded=0;orthogonalLoop=1;jettySize=auto;html=1;entryX=0;entryY=0.5;entryDx=0;entryDy=0;" edge="1" parent="1" source="qcWmt_7-_qkY_qiTGlPZ-11" target="50ibuqz27vsXGFiZqZsY-4">
          <mxGeometry relative="1" as="geometry" />
        </mxCell>
        <mxCell id="50ibuqz27vsXGFiZqZsY-19" style="rounded=0;orthogonalLoop=1;jettySize=auto;html=1;entryX=0;entryY=0.5;entryDx=0;entryDy=0;" edge="1" parent="1" source="qcWmt_7-_qkY_qiTGlPZ-11" target="qcWmt_7-_qkY_qiTGlPZ-6">
          <mxGeometry relative="1" as="geometry" />
        </mxCell>
        <mxCell id="50ibuqz27vsXGFiZqZsY-20" style="rounded=0;orthogonalLoop=1;jettySize=auto;html=1;entryX=0;entryY=0.5;entryDx=0;entryDy=0;" edge="1" parent="1" source="qcWmt_7-_qkY_qiTGlPZ-11" target="qcWmt_7-_qkY_qiTGlPZ-7">
          <mxGeometry relative="1" as="geometry" />
        </mxCell>
        <mxCell id="50ibuqz27vsXGFiZqZsY-21" style="rounded=0;orthogonalLoop=1;jettySize=auto;html=1;entryX=0;entryY=0.5;entryDx=0;entryDy=0;" edge="1" parent="1" source="qcWmt_7-_qkY_qiTGlPZ-11" target="50ibuqz27vsXGFiZqZsY-1">
          <mxGeometry relative="1" as="geometry" />
        </mxCell>
        <mxCell id="50ibuqz27vsXGFiZqZsY-22" style="rounded=0;orthogonalLoop=1;jettySize=auto;html=1;entryX=0;entryY=0.5;entryDx=0;entryDy=0;" edge="1" parent="1" source="qcWmt_7-_qkY_qiTGlPZ-11" target="50ibuqz27vsXGFiZqZsY-2">
          <mxGeometry relative="1" as="geometry" />
        </mxCell>
        <mxCell id="qcWmt_7-_qkY_qiTGlPZ-11" value="Admin" style="shape=umlActor;verticalLabelPosition=bottom;verticalAlign=top;html=1;outlineConnect=0;" vertex="1" parent="1">
          <mxGeometry x="50" y="640" width="30" height="60" as="geometry" />
        </mxCell>
        <mxCell id="50ibuqz27vsXGFiZqZsY-1" value="Update doctor information" style="ellipse;whiteSpace=wrap;html=1;" vertex="1" parent="1">
          <mxGeometry x="316.5" y="890" width="220" height="60" as="geometry" />
        </mxCell>
        <mxCell id="50ibuqz27vsXGFiZqZsY-2" value="Manage website info" style="ellipse;whiteSpace=wrap;html=1;" vertex="1" parent="1">
          <mxGeometry x="315.5" y="970" width="220" height="60" as="geometry" />
        </mxCell>
        <mxCell id="50ibuqz27vsXGFiZqZsY-7" style="edgeStyle=orthogonalEdgeStyle;rounded=0;orthogonalLoop=1;jettySize=auto;html=1;entryX=0.5;entryY=0;entryDx=0;entryDy=0;curved=1;" edge="1" parent="1" source="50ibuqz27vsXGFiZqZsY-3" target="50ibuqz27vsXGFiZqZsY-5">
          <mxGeometry relative="1" as="geometry" />
        </mxCell>
        <mxCell id="50ibuqz27vsXGFiZqZsY-3" value="Manage patient information" style="ellipse;whiteSpace=wrap;html=1;" vertex="1" parent="1">
          <mxGeometry x="315" y="570" width="220" height="60" as="geometry" />
        </mxCell>
        <mxCell id="50ibuqz27vsXGFiZqZsY-9" style="edgeStyle=orthogonalEdgeStyle;rounded=0;orthogonalLoop=1;jettySize=auto;html=1;entryX=0.5;entryY=0;entryDx=0;entryDy=0;curved=1;" edge="1" parent="1" source="50ibuqz27vsXGFiZqZsY-4" target="50ibuqz27vsXGFiZqZsY-6">
          <mxGeometry relative="1" as="geometry" />
        </mxCell>
        <mxCell id="50ibuqz27vsXGFiZqZsY-4" value="Validate and save patient data" style="ellipse;whiteSpace=wrap;html=1;" vertex="1" parent="1">
          <mxGeometry x="310" y="650" width="220" height="60" as="geometry" />
        </mxCell>
        <mxCell id="50ibuqz27vsXGFiZqZsY-5" value="&amp;lt;&amp;lt;Include&amp;gt;&amp;gt;" style="text;html=1;align=center;verticalAlign=middle;whiteSpace=wrap;rounded=0;" vertex="1" parent="1">
          <mxGeometry x="540" y="627" width="60" height="30" as="geometry" />
        </mxCell>
        <mxCell id="50ibuqz27vsXGFiZqZsY-10" style="edgeStyle=orthogonalEdgeStyle;rounded=0;orthogonalLoop=1;jettySize=auto;html=1;exitX=0.5;exitY=1;exitDx=0;exitDy=0;curved=1;" edge="1" parent="1" source="50ibuqz27vsXGFiZqZsY-6" target="qcWmt_7-_qkY_qiTGlPZ-6">
          <mxGeometry relative="1" as="geometry" />
        </mxCell>
        <mxCell id="50ibuqz27vsXGFiZqZsY-6" value="&amp;lt;&amp;lt;extend&amp;gt;&amp;gt;" style="text;html=1;align=center;verticalAlign=middle;whiteSpace=wrap;rounded=0;" vertex="1" parent="1">
          <mxGeometry x="540" y="710" width="60" height="30" as="geometry" />
        </mxCell>
        <mxCell id="50ibuqz27vsXGFiZqZsY-16" style="rounded=0;orthogonalLoop=1;jettySize=auto;html=1;entryX=0.047;entryY=0.579;entryDx=0;entryDy=0;entryPerimeter=0;" edge="1" parent="1" source="qcWmt_7-_qkY_qiTGlPZ-11" target="qcWmt_7-_qkY_qiTGlPZ-5">
          <mxGeometry relative="1" as="geometry" />
        </mxCell>
        <mxCell id="50ibuqz27vsXGFiZqZsY-23" value="Hospital system" style="text;html=1;align=center;verticalAlign=middle;whiteSpace=wrap;rounded=0;" vertex="1" parent="1">
          <mxGeometry x="350" y="50" width="150" height="30" as="geometry" />
        </mxCell>
        <mxCell id="50ibuqz27vsXGFiZqZsY-26" style="edgeStyle=orthogonalEdgeStyle;rounded=0;orthogonalLoop=1;jettySize=auto;html=1;exitX=0.5;exitY=1;exitDx=0;exitDy=0;curved=1;" edge="1" parent="1">
          <mxGeometry relative="1" as="geometry">
            <mxPoint x="531" y="673" as="sourcePoint" />
            <mxPoint x="568" y="653" as="targetPoint" />
          </mxGeometry>
        </mxCell>
      </root>
    </mxGraphModel>
  </diagram>
  <diagram id="eo8VmiBjtjQq_hXuE3jl" name="Page-3">
    <mxGraphModel dx="993" dy="448" grid="1" gridSize="10" guides="1" tooltips="1" connect="1" arrows="1" fold="1" page="1" pageScale="1" pageWidth="850" pageHeight="1100" math="0" shadow="0">
      <root>
        <mxCell id="0" />
        <mxCell id="1" parent="0" />
        <mxCell id="v2EYWrR1t9zNsm5kzXZJ-26" value="" style="strokeWidth=2;html=1;shape=mxgraph.flowchart.annotation_1;align=left;pointerEvents=1;direction=south;" vertex="1" parent="1">
          <mxGeometry x="80" y="390" width="640" height="35" as="geometry" />
        </mxCell>
        <mxCell id="v2EYWrR1t9zNsm5kzXZJ-17" value="" style="strokeWidth=2;html=1;shape=mxgraph.flowchart.annotation_2;align=left;labelPosition=right;pointerEvents=1;direction=south;" vertex="1" parent="1">
          <mxGeometry x="235" y="360" width="320" height="60" as="geometry" />
        </mxCell>
        <mxCell id="v2EYWrR1t9zNsm5kzXZJ-8" style="edgeStyle=orthogonalEdgeStyle;rounded=0;orthogonalLoop=1;jettySize=auto;html=1;entryX=0.5;entryY=0;entryDx=0;entryDy=0;" edge="1" parent="1" source="v2EYWrR1t9zNsm5kzXZJ-1" target="v2EYWrR1t9zNsm5kzXZJ-5">
          <mxGeometry relative="1" as="geometry" />
        </mxCell>
        <mxCell id="v2EYWrR1t9zNsm5kzXZJ-1" value="Login" style="rounded=0;whiteSpace=wrap;html=1;" vertex="1" parent="1">
          <mxGeometry x="340" y="90" width="110" height="50" as="geometry" />
        </mxCell>
        <mxCell id="v2EYWrR1t9zNsm5kzXZJ-7" style="edgeStyle=orthogonalEdgeStyle;rounded=0;orthogonalLoop=1;jettySize=auto;html=1;entryX=0.5;entryY=0;entryDx=0;entryDy=0;" edge="1" parent="1" source="v2EYWrR1t9zNsm5kzXZJ-4" target="v2EYWrR1t9zNsm5kzXZJ-1">
          <mxGeometry relative="1" as="geometry" />
        </mxCell>
        <mxCell id="v2EYWrR1t9zNsm5kzXZJ-4" value="" style="ellipse;fillColor=strokeColor;html=1;" vertex="1" parent="1">
          <mxGeometry x="385" y="20" width="20" height="20" as="geometry" />
        </mxCell>
        <mxCell id="v2EYWrR1t9zNsm5kzXZJ-9" style="edgeStyle=orthogonalEdgeStyle;rounded=0;orthogonalLoop=1;jettySize=auto;html=1;entryX=0.5;entryY=0;entryDx=0;entryDy=0;" edge="1" parent="1" source="v2EYWrR1t9zNsm5kzXZJ-5" target="v2EYWrR1t9zNsm5kzXZJ-6">
          <mxGeometry relative="1" as="geometry" />
        </mxCell>
        <mxCell id="v2EYWrR1t9zNsm5kzXZJ-5" value="Authentication" style="rounded=0;whiteSpace=wrap;html=1;" vertex="1" parent="1">
          <mxGeometry x="340" y="200" width="110" height="50" as="geometry" />
        </mxCell>
        <mxCell id="v2EYWrR1t9zNsm5kzXZJ-10" style="edgeStyle=orthogonalEdgeStyle;rounded=0;orthogonalLoop=1;jettySize=auto;html=1;entryX=1;entryY=0.5;entryDx=0;entryDy=0;" edge="1" parent="1" source="v2EYWrR1t9zNsm5kzXZJ-6" target="v2EYWrR1t9zNsm5kzXZJ-1">
          <mxGeometry relative="1" as="geometry">
            <Array as="points">
              <mxPoint x="540" y="335" />
              <mxPoint x="540" y="120" />
            </Array>
          </mxGeometry>
        </mxCell>
        <mxCell id="v2EYWrR1t9zNsm5kzXZJ-6" value="Check" style="rhombus;whiteSpace=wrap;html=1;" vertex="1" parent="1">
          <mxGeometry x="355" y="310" width="80" height="50" as="geometry" />
        </mxCell>
        <mxCell id="v2EYWrR1t9zNsm5kzXZJ-11" value="Manage Services" style="rounded=1;whiteSpace=wrap;html=1;arcSize=40;fontColor=#000000;fillColor=#ffffc0;strokeColor=#ff0000;" vertex="1" parent="1">
          <mxGeometry x="660" y="430" width="120" height="40" as="geometry" />
        </mxCell>
        <mxCell id="v2EYWrR1t9zNsm5kzXZJ-13" value="Manage Patient" style="rounded=1;whiteSpace=wrap;html=1;arcSize=40;fontColor=#000000;fillColor=#ffffc0;strokeColor=#ff0000;" vertex="1" parent="1">
          <mxGeometry x="180" y="430" width="120" height="40" as="geometry" />
        </mxCell>
        <mxCell id="v2EYWrR1t9zNsm5kzXZJ-15" value="Manage Department" style="rounded=1;whiteSpace=wrap;html=1;arcSize=40;fontColor=#000000;fillColor=#ffffc0;strokeColor=#ff0000;" vertex="1" parent="1">
          <mxGeometry x="335" y="430" width="120" height="40" as="geometry" />
        </mxCell>
        <mxCell id="v2EYWrR1t9zNsm5kzXZJ-18" value="" style="line;strokeWidth=2;direction=south;html=1;" vertex="1" parent="1">
          <mxGeometry x="390" y="380" width="10" height="40" as="geometry" />
        </mxCell>
        <mxCell id="v2EYWrR1t9zNsm5kzXZJ-22" value="Create/ Update/ Delete" style="strokeWidth=2;html=1;shape=mxgraph.flowchart.terminator;whiteSpace=wrap;" vertex="1" parent="1">
          <mxGeometry x="30" y="530" width="100" height="40" as="geometry" />
        </mxCell>
        <mxCell id="v2EYWrR1t9zNsm5kzXZJ-23" value="Invalid" style="text;html=1;align=center;verticalAlign=middle;whiteSpace=wrap;rounded=0;" vertex="1" parent="1">
          <mxGeometry x="530" y="200" width="60" height="30" as="geometry" />
        </mxCell>
        <mxCell id="v2EYWrR1t9zNsm5kzXZJ-24" value="Valid" style="text;html=1;align=center;verticalAlign=middle;whiteSpace=wrap;rounded=0;" vertex="1" parent="1">
          <mxGeometry x="385" y="360" width="60" height="30" as="geometry" />
        </mxCell>
        <mxCell id="v2EYWrR1t9zNsm5kzXZJ-29" style="edgeStyle=orthogonalEdgeStyle;rounded=0;orthogonalLoop=1;jettySize=auto;html=1;" edge="1" parent="1" source="v2EYWrR1t9zNsm5kzXZJ-27">
          <mxGeometry relative="1" as="geometry">
            <mxPoint x="80" y="530" as="targetPoint" />
          </mxGeometry>
        </mxCell>
        <mxCell id="v2EYWrR1t9zNsm5kzXZJ-27" value="Manage Doctor" style="rounded=1;whiteSpace=wrap;html=1;arcSize=40;fontColor=#000000;fillColor=#ffffc0;strokeColor=#ff0000;" vertex="1" parent="1">
          <mxGeometry x="20" y="430" width="120" height="40" as="geometry" />
        </mxCell>
        <mxCell id="v2EYWrR1t9zNsm5kzXZJ-28" value="Manage Blog" style="rounded=1;whiteSpace=wrap;html=1;arcSize=40;fontColor=#000000;fillColor=#ffffc0;strokeColor=#ff0000;" vertex="1" parent="1">
          <mxGeometry x="490" y="430" width="120" height="40" as="geometry" />
        </mxCell>
        <mxCell id="v2EYWrR1t9zNsm5kzXZJ-31" value="Create/ Update/ Delete" style="strokeWidth=2;html=1;shape=mxgraph.flowchart.terminator;whiteSpace=wrap;" vertex="1" parent="1">
          <mxGeometry x="190" y="530" width="100" height="40" as="geometry" />
        </mxCell>
        <mxCell id="v2EYWrR1t9zNsm5kzXZJ-32" style="edgeStyle=orthogonalEdgeStyle;rounded=0;orthogonalLoop=1;jettySize=auto;html=1;" edge="1" parent="1">
          <mxGeometry relative="1" as="geometry">
            <mxPoint x="240" y="530" as="targetPoint" />
            <mxPoint x="240" y="470" as="sourcePoint" />
          </mxGeometry>
        </mxCell>
        <mxCell id="v2EYWrR1t9zNsm5kzXZJ-33" value="Create/ Update/ Delete" style="strokeWidth=2;html=1;shape=mxgraph.flowchart.terminator;whiteSpace=wrap;" vertex="1" parent="1">
          <mxGeometry x="345" y="530" width="100" height="40" as="geometry" />
        </mxCell>
        <mxCell id="v2EYWrR1t9zNsm5kzXZJ-34" style="edgeStyle=orthogonalEdgeStyle;rounded=0;orthogonalLoop=1;jettySize=auto;html=1;" edge="1" parent="1">
          <mxGeometry relative="1" as="geometry">
            <mxPoint x="395" y="530" as="targetPoint" />
            <mxPoint x="395" y="470" as="sourcePoint" />
          </mxGeometry>
        </mxCell>
        <mxCell id="v2EYWrR1t9zNsm5kzXZJ-35" value="Create/ Update/ Delete" style="strokeWidth=2;html=1;shape=mxgraph.flowchart.terminator;whiteSpace=wrap;" vertex="1" parent="1">
          <mxGeometry x="500" y="530" width="100" height="40" as="geometry" />
        </mxCell>
        <mxCell id="v2EYWrR1t9zNsm5kzXZJ-36" style="edgeStyle=orthogonalEdgeStyle;rounded=0;orthogonalLoop=1;jettySize=auto;html=1;" edge="1" parent="1">
          <mxGeometry relative="1" as="geometry">
            <mxPoint x="550" y="530" as="targetPoint" />
            <mxPoint x="550" y="470" as="sourcePoint" />
          </mxGeometry>
        </mxCell>
        <mxCell id="v2EYWrR1t9zNsm5kzXZJ-37" value="Create/ Update/ Delete" style="strokeWidth=2;html=1;shape=mxgraph.flowchart.terminator;whiteSpace=wrap;" vertex="1" parent="1">
          <mxGeometry x="670" y="530" width="100" height="40" as="geometry" />
        </mxCell>
        <mxCell id="v2EYWrR1t9zNsm5kzXZJ-38" style="edgeStyle=orthogonalEdgeStyle;rounded=0;orthogonalLoop=1;jettySize=auto;html=1;" edge="1" parent="1">
          <mxGeometry relative="1" as="geometry">
            <mxPoint x="720" y="530" as="targetPoint" />
            <mxPoint x="720" y="470" as="sourcePoint" />
          </mxGeometry>
        </mxCell>
        <mxCell id="v2EYWrR1t9zNsm5kzXZJ-39" value="ObjectNode1" style="html=1;shape=mxgraph.infographic.ribbonSimple;notch1=20;notch2=20;align=center;verticalAlign=middle;fontSize=14;fontStyle=0;fillColor=#FFFFFF;whiteSpace=wrap;" vertex="1" parent="1">
          <mxGeometry x="380" y="470" width="160" height="40" as="geometry" />
        </mxCell>
        <mxCell id="v2EYWrR1t9zNsm5kzXZJ-40" value="" style="endArrow=none;startArrow=none;endFill=0;startFill=0;endSize=8;html=1;verticalAlign=bottom;labelBackgroundColor=none;strokeWidth=3;rounded=0;" edge="1" parent="1" target="v2EYWrR1t9zNsm5kzXZJ-42">
          <mxGeometry width="160" relative="1" as="geometry">
            <mxPoint x="380" y="473" as="sourcePoint" />
            <mxPoint x="504.79999999999995" y="593" as="targetPoint" />
          </mxGeometry>
        </mxCell>
        <mxCell id="v2EYWrR1t9zNsm5kzXZJ-41" value="" style="shape=line;html=1;strokeWidth=6;strokeColor=#ff0000;" vertex="1" parent="1">
          <mxGeometry x="410" y="610.0000000000001" width="200" height="10" as="geometry" />
        </mxCell>
        <mxCell id="v2EYWrR1t9zNsm5kzXZJ-42" value="" style="html=1;points=[[0,0,0,0,5],[0,1,0,0,-5],[1,0,0,0,5],[1,1,0,0,-5]];perimeter=orthogonalPerimeter;outlineConnect=0;targetShapes=umlLifeline;portConstraint=eastwest;newEdgeStyle={&quot;curved&quot;:0,&quot;rounded&quot;:0};" vertex="1" parent="1">
          <mxGeometry x="499.79999999999995" y="553" width="10" height="80" as="geometry" />
        </mxCell>
      </root>
    </mxGraphModel>
  </diagram>
</mxfile>
